<svg xmlns="http://www.w3.org/2000/svg" viewBox="0 0 589.95 502.7"><defs><style>.cls-1{fill:#fff;}</style></defs><title>Asset 1</title><g id="Layer_2" data-name="Layer 2"><g id="Layer_1-2" data-name="Layer 1"><path class="cls-1" d="M0,0H590V502.7H0ZM363.25,410.87a37.32,37.32,0,0,1,4.85-1.29c8.22-1.05,15.08-4.52,21.45-8.76,7.32-4.87,14.49-9.91,21.68-14.93a93.89,93.89,0,0,0,17.29-15.53c1.56-1.79,3.29-3.48,4.86-5.26,3.21-3.64,6.79-7.1,9.44-11A129.93,129.93,0,0,0,459,321.64a208.15,208.15,0,0,0,6.27-22c2.28-10.86,4.23-21.79,5.62-32.75,1.65-13,2.89-26.13,3.68-39.22.7-11.74.45-23.52-2.69-35.09-2.08-7.71-3.5-15.59-6.33-23.09a98.22,98.22,0,0,0-13.76-25q-9.87-12.94-20-25.76c-5.44-6.95-12.78-12.42-19.92-18-8.77-6.85-18.7-12.41-29-17.45C373.6,78.73,364.39,74,354.75,70c-7.52-3.1-15.6-5.23-23.5-7.63-10.29-3.14-21-4.27-31.88-4.55-2.54-.07-5.08-.22-7.62-.14-7.86.23-15.74.33-23.57.91A116,116,0,0,0,253.85,61c-5.71,1.16-11.47,2.29-17,3.91-13.37,3.91-25.48,10-37.17,16.65a159.77,159.77,0,0,0-20.21,13.22,211.73,211.73,0,0,0-20.88,18.9,176.67,176.67,0,0,0-15.88,19.21c-4.32,5.94-7.8,12.33-11.54,18.57-3.12,5.2-6.55,10.32-9,15.74-4.15,9.09-8,18.31-11.34,27.64a225.15,225.15,0,0,0-6.9,23.77,115.5,115.5,0,0,0-2.9,18.31c-.66,8.78-1.31,17.63-.77,26.4.78,12.49,2.26,25,4.14,37.37,1.4,9.14,3.87,18.17,6,27.23,2,8.6,5.62,16.72,9.52,24.82,4.75,9.87,9.76,19.59,16.21,28.74,4.84,6.86,9.55,13.81,14.84,20.42,5.56,6.95,11.82,13.46,20.08,18.37,8.61,5.11,17.53,9.95,25.53,15.7,7.75,5.57,16.87,8,26.11,10.25,8.32,2,17,3.13,25.43,4.78a78.85,78.85,0,0,0,34.42-.49c4.49-1.11,9.28-1.35,13.83-2.33,8.21-1.76,16.38-3.7,24.51-5.72a47.39,47.39,0,0,0,15.81-7.31c5.46-3.82,12.2-6.05,17-10.77C357.92,420.17,362.72,416.46,363.25,410.87Z"/><path d="M363.25,410.87c-.53,5.59-5.33,9.3-9.61,13.48-4.82,4.72-11.56,6.95-17,10.77a47.39,47.39,0,0,1-15.81,7.31c-8.13,2-16.3,4-24.51,5.72-4.55,1-9.34,1.22-13.83,2.33a78.85,78.85,0,0,1-34.42.49c-8.47-1.65-17.11-2.74-25.43-4.78-9.24-2.26-18.36-4.68-26.11-10.25-8-5.75-16.92-10.59-25.53-15.7-8.26-4.91-14.52-11.42-20.08-18.37-5.29-6.61-10-13.56-14.84-20.42-6.45-9.15-11.46-18.87-16.21-28.74-3.9-8.1-7.53-16.22-9.52-24.82-2.09-9.06-4.56-18.09-6-27.23-1.88-12.41-3.36-24.88-4.14-37.37-.54-8.77.11-17.62.77-26.4a115.5,115.5,0,0,1,2.9-18.31,225.15,225.15,0,0,1,6.9-23.77c3.35-9.33,7.19-18.55,11.34-27.64,2.48-5.42,5.91-10.54,9-15.74,3.74-6.24,7.22-12.63,11.54-18.57a176.67,176.67,0,0,1,15.88-19.21,211.73,211.73,0,0,1,20.88-18.9,159.77,159.77,0,0,1,20.21-13.22c11.69-6.63,23.8-12.74,37.17-16.65,5.53-1.62,11.29-2.75,17-3.91a116,116,0,0,1,14.33-2.36c7.83-.58,15.71-.68,23.57-.91,2.54-.08,5.08.07,7.62.14,10.87.28,21.59,1.41,31.88,4.55,7.9,2.4,16,4.53,23.5,7.63,9.64,4,18.85,8.71,28.14,13.27,10.3,5,20.23,10.6,29,17.45,7.14,5.58,14.48,11.05,19.92,18q10.06,12.83,20,25.76a98.22,98.22,0,0,1,13.76,25c2.83,7.5,4.25,15.38,6.33,23.09,3.14,11.57,3.39,23.35,2.69,35.09-.79,13.09-2,26.19-3.68,39.22-1.39,11-3.34,21.89-5.62,32.75a208.15,208.15,0,0,1-6.27,22,129.93,129.93,0,0,1-16.16,32.44c-2.65,3.92-6.23,7.38-9.44,11-1.57,1.78-3.3,3.47-4.86,5.26a93.89,93.89,0,0,1-17.29,15.53c-7.19,5-14.36,10.06-21.68,14.93-6.37,4.24-13.23,7.71-21.45,8.76A37.32,37.32,0,0,0,363.25,410.87ZM198.56,408l.39-.26c-1-2.29-1.9-4.6-3-6.85A22.47,22.47,0,0,1,194.81,384a31.7,31.7,0,0,1,9.78-14.5c1.21-1,2.41-2.09,3.68-3.08,6.45-5,12.39-10.65,20.79-13.49,1.92-.65,3.87-1.27,5.85-1.79,3.45-.91,6.88-2.11,10.42-2.52,9.6-1.11,19.24-2,28.89-2.74,7.13-.57,14.34-.62,21.45-1.38a210.9,210.9,0,0,0,21.63-3.3c6.58-1.4,13-3.49,19.34-5.46,9.28-2.86,18.62-5.72,26.85-10.48,6.44-3.72,12.82-7.58,18.82-11.81,7.88-5.55,15.63-11.3,21.12-18.84s11.72-15.1,16.51-23.12A77.34,77.34,0,0,0,428,252c2-7.24,2.68-14.76,3.54-22.19.68-5.89.9-11.83,1.06-17.76.1-4.12-.25-8.25-.42-12.37a48.22,48.22,0,0,0-.37-5.25c-.72-4.65-1.28-9.33-2.45-13.9a66.05,66.05,0,0,0-4.76-13.84A46.15,46.15,0,0,0,416.82,155c-3-3.06-5.25-6.66-8.37-9.61a182.33,182.33,0,0,0-14.25-12c-4.48-3.44-9.31-6.55-14.08-9.69-3.35-2.19-7.06-4-10.29-6.33-9.24-6.61-18.55-13.12-30-16.83-4.64-1.5-9.24-3.39-14.06-4.12-12.36-1.84-24.86-2.91-37.41-1.53-8.08.89-16.19,1.79-24.12,3.31a182.1,182.1,0,0,0-21.66,5.62,208.59,208.59,0,0,0-20.92,8.11,78,78,0,0,0-28.73,21.57,249.63,249.63,0,0,0-16.8,23c-4.79,7.41-9.59,15-12.72,22.95a253.16,253.16,0,0,0-11.27,35.89c-3,13.33-6,26.77-5.4,40.53.42,9.4,0,18.82.6,28.21s1.74,18.64,2.94,27.93c1.78,13.8,7.3,26.78,13.14,39.58a269.9,269.9,0,0,0,15,27.54c5.27,8.7,11.3,17.07,17.07,25.55A29.08,29.08,0,0,0,198.56,408Zm155.62-5.45a14,14,0,0,0,2.28,0c2.8-.6,5-.25,6.05,2.41a2.57,2.57,0,0,0,2.07.85,45.07,45.07,0,0,0,8.81-1.74,51,51,0,0,0,12.14-6.28c4.33-3.12,8.93-5.95,13.39-8.94,3-2,6.16-4,8.94-6.21,3.79-3.05,7.38-6.28,10.88-9.57a99.82,99.82,0,0,0,8.78-8.93c3.12-3.76,7.61-6.61,9.62-11.13.89-2,2.85-3.66,4.06-5.59s2-4.06,3.15-6c1.61-2.89,3.6-5.64,4.95-8.62,2.19-4.83,4-9.79,5.95-14.7a60.72,60.72,0,0,0,2.65-7.29c.8-3.21,1.12-6.51,1.8-9.74.42-2,1.33-3.85,1.69-5.82.65-3.6.6-7.33,1.67-10.83a44.92,44.92,0,0,0,2.29-12.3c.12-5,1.48-10,2.3-15,.35-2.12.81-4.22,1-6.35a10.88,10.88,0,0,0-.32-3.85c-.92-3.4,3.05-6.54.62-10,0-.06,0-.15,0-.23.29-4.6.86-9.21.8-13.81-.12-8.46-.55-16.92-1-25.37a29.84,29.84,0,0,0-1.12-6.39c-1.3-4.7-3-9.31-4.14-14-2-8.27-5.94-15.9-10.37-23.32-3.85-6.44-8.53-12.53-13-18.69-3-4.15-6.18-8.26-9.64-12.15s-7.39-7.78-11.34-11.47a93.58,93.58,0,0,0-8.25-6.57c-4.3-3.23-8.54-6.53-13.08-9.5a136.64,136.64,0,0,0-12.58-7.14c-4.37-2.23-9-4.16-13.44-6.2-6.41-2.91-12.73-6-19.26-8.65-3.87-1.6-8.22-2.35-12.08-4-9.68-4.06-20.09-5.6-30.61-6.64-5.48-.54-11-.51-16.59-.59-5.1-.07-10.24-.2-15.32.15A173.59,173.59,0,0,0,260,64.37a159.35,159.35,0,0,0-16.21,3.9,126.11,126.11,0,0,0-16.08,5.3c-7.87,3.44-15.59,7.21-23,11.33a196.42,196.42,0,0,0-19,12.13c-4.77,3.43-8.89,7.5-13.34,11.26A117.25,117.25,0,0,0,152,130c-6.13,8.68-11.24,17.89-16.94,26.79-7.51,11.73-12.78,24.28-17.41,36.93a186.46,186.46,0,0,0-10.82,45,199.77,199.77,0,0,0,.13,38.74c.82,8.94,2.39,17.82,3.88,26.7,1.08,6.42,2.26,12.86,4,19.18,2.61,9.79,5.53,19.52,10.63,28.69,3.61,6.47,6.28,13.34,10.16,19.68a252,252,0,0,0,25.75,35.2c5.48,6.2,12.3,11.12,19.58,15.62,5.71,3.52,11.6,6.85,17.45,10.21,4.32,2.49,8.47,5.35,13.14,7.23,4.35,1.75,9.34,2.3,14,3.6,9.5,2.69,19.33,4,29.13,5.51a54.13,54.13,0,0,0,23-1.18,54.81,54.81,0,0,1,7-1c5.1-.69,10.24-1.23,15.29-2.15,4.32-.79,8.5-2.14,12.81-3a57.84,57.84,0,0,0,17-6.37c1.73-1,3.33-2.13,5.11-3,5.56-2.85,11.35-5.37,15.76-9.64,3.33-3.22,6.63-6.43,7.89-10.65a7.64,7.64,0,0,0-.77-6.83c-6.47,2-8.14,6.8-10.36,11.36a24.3,24.3,0,0,1-10.25,11c-.74.41-2.07,0-3.12,0a7.37,7.37,0,0,1,1-2.32c1.67-1.79,4.07-3.23,5.22-5.21q5.21-9,9.59-18.35c1.36-2.9,1.17-6-1.59-9.25-1.06,1.68-1.89,3.07-2.8,4.42-.81,1.2-1.4,2.74-2.63,3.43a5,5,0,0,0-2.48,3.56c-1.19,4-2.4,7.95-3.63,11.91-1.43,4.65-4.43,8.51-8.37,11.88-2.46,2.1-3.58,2.11-5.12.31,2.43-3,5.41-5.65,7-8.82a51.89,51.89,0,0,0,5.92-29.4,6.21,6.21,0,0,0-1.22-2.78,7.62,7.62,0,0,0-2-1.4c-.44.61-1.14,1.18-1.27,1.84-1,5.1-1.87,10.24-2.92,15.34-.68,3.37-1.58,6.71-2.45,10.05-.55,2.16-1.18,4.3-1.83,6.44-.54,1.79-2,1.06-3.3.83-1.48-.27-1.48-1-1.18-2.1,1.32-4.65,3-9.27,3.68-14,.58-3.77.14-7.69-.17-11.52-.07-.89-1.46-1.7-2.24-2.55-.76,1-1.94,1.82-2.18,2.85-1,4.21-1.43,8.5-2.48,12.69-1.7,6.8-6,12.33-12.76,16.18-4.18,2.39-6.51,2.32-9.57.11a2.59,2.59,0,0,1-.74-2.69,67.84,67.84,0,0,1,5.3-6.15c2.07-2.29,3.34-4.77,2.81-7.74-.33-1.86-1.65-2.5-3.39-1.39a16.66,16.66,0,0,0-4.55,3.84,54.48,54.48,0,0,1-11.9,11.56c-5.63,4.23-12.54,6.35-19.44,8.35-5.64,1.64-11.42,3-17.24,4.1-5.25,1-10.54,2-15.76-.71-10.36-5.46-21.7-9.46-30.45-17.19A84.51,84.51,0,0,1,183.44,396c-3.69-5.73-7.27-11.52-10.6-17.41-5.68-10.06-11.62-20.05-16.53-30.39a147.58,147.58,0,0,1-8.81-24.39,224.92,224.92,0,0,1-5.23-26.38,189,189,0,0,1-1.57-20.31c-.2-5.14.17-10.29.16-15.43,0-3.85-.66-7.73-.27-11.54.81-8.11,1.84-16.21,3.29-24.25,1.37-7.6,3.11-15.17,5.19-22.64a230.19,230.19,0,0,1,7.86-24.22c2.47-6.15,6-12,9.48-17.83,4.24-7.05,8.61-14.08,13.57-20.77a171.76,171.76,0,0,1,14.38-16.55c7.31-7.58,16.9-12.83,26.87-17.47,10.45-4.88,21.8-7.91,33.19-10.74a190.82,190.82,0,0,1,40.5-5.07,134.93,134.93,0,0,1,34.21,3.12,100.66,100.66,0,0,1,28.18,11.64c5.46,3.17,10.35,7,15.6,10.45,6.11,4,12.66,7.53,18.43,11.84,9.72,7.25,19.6,14.36,26.91,23.73,6.43,8.26,13.33,16.21,15.54,26.21,1.32,6,2.73,12,3.44,18.11.58,5,.23,10.12.23,15.19,0,6.5.51,13.06-.24,19.51-1,8.65-2.82,17.24-4.63,25.8s-6,16.64-11.2,24.21c-2.23,3.27-4.79,6.37-7.34,9.46-4.25,5.18-8.12,10.67-13,15.35-7.69,7.32-16.77,13.38-26.22,19.08a135.53,135.53,0,0,1-27.11,12.1c-4.78,1.61-9.8,2.74-14.52,4.48a123.12,123.12,0,0,1-31.81,6.74c-14.65,1.31-29.35,2.4-44.07,3.13A79.2,79.2,0,0,0,237,354.64a50.44,50.44,0,0,0-12.46,5.44c-5.61,3.71-10.62,8.09-15.74,12.33s-8.65,9.42-9.13,15.41c-.93,11.55,4,21.54,13.52,29.71,6.45,5.53,14.91,8.39,23.15,11.43a4.3,4.3,0,0,0,2.14,0c4.32-.83,8.67-1.59,12.91-2.64,4.45-1.09,8.83-2.39,13.17-3.75,9.28-2.93,16.82-7.81,22.29-14.9,2.84-3.68,5.9-7.07,11.6-7.61,4.28-.41,8.33,2.67,8.53,5.86a10.19,10.19,0,0,1-4,9.25,35.61,35.61,0,0,0-3.64,3.84,10.4,10.4,0,0,0,1.56-.18,2.39,2.39,0,0,0,.69-.36,28.34,28.34,0,0,0,11-16.81c.82-3.56,1-7.22,1.71-10.8.6-3,3.1-4.28,6.55-3.56a47.58,47.58,0,0,1,5.33,1.78c.45-1.27.87-2.43,1.27-3.6.57-1.63,1.8-2.32,3.83-2.38,5.63-.16,9.38,2.79,9.57,7.66,0,.86.26,1.71.47,3.08,1-.87,1.47-1.27,1.9-1.73a6.68,6.68,0,0,1,10.51,1C355.38,396.12,356.13,399.1,354.18,402.53Z"/><path class="cls-1" d="M198.56,408a29.08,29.08,0,0,1-3.08-3.33c-5.77-8.48-11.8-16.85-17.07-25.55a269.9,269.9,0,0,1-15-27.54c-5.84-12.8-11.36-25.78-13.14-39.58-1.2-9.29-2.37-18.6-2.94-27.93s-.18-18.81-.6-28.21c-.61-13.76,2.37-27.2,5.4-40.53a253.16,253.16,0,0,1,11.27-35.89c3.13-8,7.93-15.54,12.72-22.95a249.63,249.63,0,0,1,16.8-23,78,78,0,0,1,28.73-21.57,208.59,208.59,0,0,1,20.92-8.11,182.1,182.1,0,0,1,21.66-5.62c7.93-1.52,16-2.42,24.12-3.31,12.55-1.38,25-.31,37.41,1.53,4.82.73,9.42,2.62,14.06,4.12,11.46,3.71,20.77,10.22,30,16.83,3.23,2.32,6.94,4.14,10.29,6.33,4.77,3.14,9.6,6.25,14.08,9.69a182.33,182.33,0,0,1,14.25,12c3.12,3,5.37,6.55,8.37,9.61a46.15,46.15,0,0,1,7.81,11.66,66.05,66.05,0,0,1,4.76,13.84c1.17,4.57,1.73,9.25,2.45,13.9a48.22,48.22,0,0,1,.37,5.25c.17,4.12.52,8.25.42,12.37-.16,5.93-.38,11.87-1.06,17.76-.86,7.43-1.57,14.95-3.54,22.19a77.34,77.34,0,0,1-8.09,19.53c-4.79,8-10.92,15.46-16.51,23.12s-13.24,13.29-21.12,18.84c-6,4.23-12.38,8.09-18.82,11.81-8.23,4.76-17.57,7.62-26.85,10.48-6.38,2-12.76,4.06-19.34,5.46a210.9,210.9,0,0,1-21.63,3.3c-7.11.76-14.32.81-21.45,1.38-9.65.78-19.29,1.63-28.89,2.74-3.54.41-7,1.61-10.42,2.52-2,.52-3.93,1.14-5.85,1.79-8.4,2.84-14.34,8.45-20.79,13.49-1.27,1-2.47,2-3.68,3.08a31.7,31.7,0,0,0-9.78,14.5A22.47,22.47,0,0,0,196,400.87c1.08,2.25,2,4.56,3,6.85Z"/><path class="cls-1" d="M354.18,402.53c1.95-3.43,1.2-6.41-.48-9.36a6.68,6.68,0,0,0-10.51-1c-.43.46-.94.86-1.9,1.73-.21-1.37-.43-2.22-.47-3.08-.19-4.87-3.94-7.82-9.57-7.66-2,.06-3.26.75-3.83,2.38-.4,1.17-.82,2.33-1.27,3.6a47.58,47.58,0,0,0-5.33-1.78c-3.45-.72-5.95.6-6.55,3.56-.72,3.58-.89,7.24-1.71,10.8a28.34,28.34,0,0,1-11,16.81,2.39,2.39,0,0,1-.69.36,10.4,10.4,0,0,1-1.56.18,35.61,35.61,0,0,1,3.64-3.84,10.19,10.19,0,0,0,4-9.25c-.2-3.19-4.25-6.27-8.53-5.86-5.7.54-8.76,3.93-11.6,7.61-5.47,7.09-13,12-22.29,14.9-4.34,1.36-8.72,2.66-13.17,3.75-4.24,1-8.59,1.81-12.91,2.64a4.3,4.3,0,0,1-2.14,0c-8.24-3-16.7-5.9-23.15-11.43-9.54-8.17-14.45-18.16-13.52-29.71.48-6,4-11.19,9.13-15.41s10.13-8.62,15.74-12.33A50.44,50.44,0,0,1,237,354.64a79.2,79.2,0,0,1,20.33-3.85c14.72-.73,29.42-1.82,44.07-3.13a123.12,123.12,0,0,0,31.81-6.74c4.72-1.74,9.74-2.87,14.52-4.48a135.53,135.53,0,0,0,27.11-12.1c9.45-5.7,18.53-11.76,26.22-19.08,4.92-4.68,8.79-10.17,13-15.35,2.55-3.09,5.11-6.19,7.34-9.46,5.16-7.57,9.38-15.53,11.2-24.21s3.62-17.15,4.63-25.8c.75-6.45.24-13,.24-19.51,0-5.07.35-10.17-.23-15.19-.71-6.08-2.12-12.1-3.44-18.11-2.21-10-9.11-17.95-15.54-26.21-7.31-9.37-17.19-16.48-26.91-23.73-5.77-4.31-12.32-7.85-18.43-11.84-5.25-3.43-10.14-7.28-15.6-10.45a100.66,100.66,0,0,0-28.18-11.64,134.93,134.93,0,0,0-34.21-3.12,190.82,190.82,0,0,0-40.5,5.07c-11.39,2.83-22.74,5.86-33.19,10.74-10,4.64-19.56,9.89-26.87,17.47A171.76,171.76,0,0,0,180,140.47c-5,6.69-9.33,13.72-13.57,20.77-3.5,5.8-7,11.68-9.48,17.83a230.19,230.19,0,0,0-7.86,24.22c-2.08,7.47-3.82,15-5.19,22.64-1.45,8-2.48,16.14-3.29,24.25-.39,3.81.26,7.69.27,11.54,0,5.14-.36,10.29-.16,15.43a189,189,0,0,0,1.57,20.31,224.92,224.92,0,0,0,5.23,26.38,147.58,147.58,0,0,0,8.81,24.39c4.91,10.34,10.85,20.33,16.53,30.39,3.33,5.89,6.91,11.68,10.6,17.41a84.51,84.51,0,0,0,15.45,17.68c8.75,7.73,20.09,11.73,30.45,17.19,5.22,2.74,10.51,1.71,15.76.71,5.82-1.11,11.6-2.46,17.24-4.1,6.9-2,13.81-4.12,19.44-8.35a54.48,54.48,0,0,0,11.9-11.56,16.66,16.66,0,0,1,4.55-3.84c1.74-1.11,3.06-.47,3.39,1.39.53,3-.74,5.45-2.81,7.74a67.84,67.84,0,0,0-5.3,6.15,2.59,2.59,0,0,0,.74,2.69c3.06,2.21,5.39,2.28,9.57-.11,6.74-3.85,11.06-9.38,12.76-16.18,1.05-4.19,1.51-8.48,2.48-12.69.24-1,1.42-1.9,2.18-2.85.78.85,2.17,1.66,2.24,2.55.31,3.83.75,7.75.17,11.52-.72,4.73-2.36,9.35-3.68,14-.3,1.07-.3,1.83,1.18,2.1,1.28.23,2.76,1,3.3-.83.65-2.14,1.28-4.28,1.83-6.44.87-3.34,1.77-6.68,2.45-10.05,1-5.1,1.89-10.24,2.92-15.34.13-.66.83-1.23,1.27-1.84a7.62,7.62,0,0,1,2,1.4,6.21,6.21,0,0,1,1.22,2.78,51.89,51.89,0,0,1-5.92,29.4c-1.62,3.17-4.6,5.84-7,8.82,1.54,1.8,2.66,1.79,5.12-.31,3.94-3.37,6.94-7.23,8.37-11.88,1.23-4,2.44-7.94,3.63-11.91a5,5,0,0,1,2.48-3.56c1.23-.69,1.82-2.23,2.63-3.43.91-1.35,1.74-2.74,2.8-4.42,2.76,3.23,2.95,6.35,1.59,9.25q-4.39,9.32-9.59,18.35c-1.15,2-3.55,3.42-5.22,5.21a7.37,7.37,0,0,0-1,2.32c1.05,0,2.38.39,3.12,0a24.3,24.3,0,0,0,10.25-11c2.22-4.56,3.89-9.39,10.36-11.36a7.64,7.64,0,0,1,.77,6.83c-1.26,4.22-4.56,7.43-7.89,10.65-4.41,4.27-10.2,6.79-15.76,9.64-1.78.91-3.38,2.07-5.11,3a57.84,57.84,0,0,1-17,6.37c-4.31.88-8.49,2.23-12.81,3-5,.92-10.19,1.46-15.29,2.15a54.81,54.81,0,0,0-7,1,54.13,54.13,0,0,1-23,1.18c-9.8-1.53-19.63-2.82-29.13-5.51-4.62-1.3-9.61-1.85-14-3.6-4.67-1.88-8.82-4.74-13.14-7.23-5.85-3.36-11.74-6.69-17.45-10.21-7.28-4.5-14.1-9.42-19.58-15.62a252,252,0,0,1-25.75-35.2c-3.88-6.34-6.55-13.21-10.16-19.68-5.1-9.17-8-18.9-10.63-28.69-1.69-6.32-2.87-12.76-4-19.18-1.49-8.88-3.06-17.76-3.88-26.7a199.77,199.77,0,0,1-.13-38.74,186.46,186.46,0,0,1,10.82-45c4.63-12.65,9.9-25.2,17.41-36.93,5.7-8.9,10.81-18.11,16.94-26.79a117.25,117.25,0,0,1,20.39-21.66c4.45-3.76,8.57-7.83,13.34-11.26a196.42,196.42,0,0,1,19-12.13c7.41-4.12,15.13-7.89,23-11.33a126.11,126.11,0,0,1,16.08-5.3A159.35,159.35,0,0,1,260,64.37a173.59,173.59,0,0,1,17.95-2.07c5.08-.35,10.22-.22,15.32-.15,5.54.08,11.11.05,16.59.59,10.52,1,20.93,2.58,30.61,6.64,3.86,1.62,8.21,2.37,12.08,4,6.53,2.69,12.85,5.74,19.26,8.65,4.49,2,9.07,4,13.44,6.2a136.64,136.64,0,0,1,12.58,7.14c4.54,3,8.78,6.27,13.08,9.5a93.58,93.58,0,0,1,8.25,6.57c3.95,3.69,7.81,7.49,11.34,11.47s6.61,8,9.64,12.15c4.5,6.16,9.18,12.25,13,18.69,4.43,7.42,8.41,15.05,10.37,23.32,1.12,4.73,2.84,9.34,4.14,14a29.84,29.84,0,0,1,1.12,6.39c.44,8.45.87,16.91,1,25.37.06,4.6-.51,9.21-.8,13.81,0,.08-.05.17,0,.23,2.43,3.43-1.54,6.57-.62,10a10.88,10.88,0,0,1,.32,3.85c-.2,2.13-.66,4.23-1,6.35-.82,5-2.18,10-2.3,15a44.92,44.92,0,0,1-2.29,12.3c-1.07,3.5-1,7.23-1.67,10.83-.36,2-1.27,3.86-1.69,5.82-.68,3.23-1,6.53-1.8,9.74a60.72,60.72,0,0,1-2.65,7.29c-1.93,4.91-3.76,9.87-5.95,14.7-1.35,3-3.34,5.73-4.95,8.62-1.12,2-1.93,4.1-3.15,6S438,351,437.14,353c-2,4.52-6.5,7.37-9.62,11.13a99.82,99.82,0,0,1-8.78,8.93c-3.5,3.29-7.09,6.52-10.88,9.57-2.78,2.24-5.92,4.18-8.94,6.21-4.46,3-9.06,5.82-13.39,8.94A51,51,0,0,1,373.39,404a45.07,45.07,0,0,1-8.81,1.74,2.57,2.57,0,0,1-2.07-.85c-1.08-2.66-3.25-3-6.05-2.41A14,14,0,0,1,354.18,402.53ZM240.76,415.15c-.08-3.06-3.27-8.13-6.47-8.77a2.41,2.41,0,0,0-2,.92c-.81,1.68.26,2.8,1.77,3.91,3.37,2.48,3.51,3.83,1.23,7.07a1.53,1.53,0,0,0-.37.84c0,.71.21,1.41.33,2.11.79-.26,2-.33,2.31-.82C238.93,418.49,240,416.44,240.76,415.15Zm-10.06-21.8,1,.43c3.74-1.38,5-4.25,5.54-7.43.48-2.55-1-4.79-3.76-6.08-3.13-1.45-4.73-1-4.43,1.45.1.8,1.21,1.61,2,2.22,2.71,2,2.93,3.47,1.05,5.95A15,15,0,0,0,230.7,393.35Zm19.56-.63c-.79.85-1.5,1.3-1.41,1.55a80.88,80.88,0,0,0,3.3,8.24c.24.5,1.85.52,2.83.77a7.11,7.11,0,0,0,0-2.3,32.7,32.7,0,0,0-2.09-5.24A18.36,18.36,0,0,0,250.26,392.72Z"/><path d="M240.76,415.15c-.76,1.29-1.83,3.34-3.16,5.26-.34.49-1.52.56-2.31.82-.12-.7-.28-1.4-.33-2.11a1.53,1.53,0,0,1,.37-.84c2.28-3.24,2.14-4.59-1.23-7.07-1.51-1.11-2.58-2.23-1.77-3.91a2.41,2.41,0,0,1,2-.92C237.49,407,240.68,412.09,240.76,415.15Z"/><path d="M230.7,393.35a15,15,0,0,1,1.48-3.46c1.88-2.48,1.66-4-1.05-5.95-.84-.61-1.95-1.42-2-2.22-.3-2.42,1.3-2.9,4.43-1.45,2.8,1.29,4.24,3.53,3.76,6.08-.59,3.18-1.8,6-5.54,7.43Z"/><path d="M250.26,392.72a18.36,18.36,0,0,1,2.65,3A32.7,32.7,0,0,1,255,401a7.11,7.11,0,0,1,0,2.3c-1-.25-2.59-.27-2.83-.77a80.88,80.88,0,0,1-3.3-8.24C248.76,394,249.47,393.57,250.26,392.72Z"/></g></g></svg>